# AST/ASF file generated using VICON BodyLanguage
# -----------------------------------------------
:version 1.10
:name VICON
:units
  mass 1.0
  length 0.45
  angle deg
:documentation
   .ast/.asf automatically generated from VICON data using
   VICON BodyBuilder and BodyLanguage model FoxedUp or BRILLIANT.MOD
:root
   order TX TY TZ RX RY RZ
   axis XYZ
   position 0 0 0  
   orientation 0 0 0 
:bonedata
  begin
     id 1 
     name lhipjoint
     direction 0.716248 -0.617586 0.324924 
     length 2.63557 
     axis 0 0 0  XYZ
  end
  begin
     id 2 
     name lfemur
     direction 0.34202 -0.939693 0  
     length 7.01235  
     axis 0 0 20  XYZ
    dof rx ry rz
    limits (-160.0 20.0)
           (-70.0 70.0)
           (-60.0 70.0)
  end
  begin
     id 3 
     name ltibia
     direction 0.34202 -0.939693 0   
     length 8.14348   
     axis 0 0 20   XYZ
    dof rx
    limits (-10.0 170.0)
  end
  begin
     id 4 
     name lfoot
     direction 0.0982064 -0.26982 0.95789   
     length 1.99077   
     axis -90 7.62852e-016 20   XYZ
    dof rx rz
    limits (-45.0 90.0)
           (-70.0 20.0)
  end
  begin
     id 5 
     name ltoes
     direction 1.53511e-011 -4.21891e-011 1   
     length 0.99735   
     axis -90 7.62852e-016 20   XYZ
    dof rx
    limits (-90.0 20.0)
  end
  begin
     id 6 
     name rhipjoint
     direction -0.687828 -0.642391 0.337975   
     length 2.5338  
     axis 0 0 0  XYZ 
  end
  begin
     id 7 
     name rfemur
     direction -0.34202 -0.939693 0   
     length 6.90199   
     axis 0 0 -20   XYZ
    dof rx ry rz
    limits (-160.0 20.0)
           (-70.0 70.0)
           (-70.0 60.0)
  end
  begin
     id 8 
     name rtibia
     direction -0.34202 -0.939693 0   
     length 8.07725   
     axis 0 0 -20   XYZ
    dof rx
    limits (-10.0 170.0)
 end
 begin
     id 9 
     name rfoot
     direction -0.0912384 -0.250675 0.963762   
     length 2.11621  
     axis -90 -7.62852e-016 -20   XYZ
    dof rx rz
    limits (-45.0 90.0)
           (-20.0 70.0)
  end
  begin
     id 10 
     name rtoes
     direction -1.5359e-011 -4.21894e-011 1   
     length 1.06031   
     axis -90 -7.62852e-016 -20   XYZ
    dof rx
    limits (-90.0 20.0)
  end
  begin
     id 11 
     name lowerback
     direction -0.0403572 0.987953 -0.149396   
     length 2.05637   
     axis 0 0 0   XYZ
    dof rx ry rz
    limits (-20.0 45.0)
           (-30.0 30.0)
           (-30.0 30.0)
  end
  begin
     id 12 
     name upperback
     direction -0.00512151 0.997598 0.0690792   
     length 2.01086   
     axis 0 0 0   XYZ
    dof rx ry rz
    limits (-20.0 45.0)
           (-30.0 30.0)
           (-30.0 30.0)
  end
  begin
     id 13 
     name thorax
     direction 0.0136133 0.989392 0.14463   
     length 2.09035   
     axis 0 0 0   XYZ
    dof rx ry rz
    limits (-20.0 45.0)
           (-30.0 30.0)
           (-30.0 30.0)
  end
  begin
     id 14 
     name lowerneck
     direction 0.0250714 0.992811 0.11704   
     length 1.70806   
     axis 0 0 0   XYZ
    dof rx ry rz
    limits (-20.0 45.0)
           (-30.0 30.0)
           (-30.0 30.0)
  end
  begin
     id 15 
     name upperneck
     direction -0.0519205 0.998394 -0.0226787   
     length 1.6689   
     axis 0 0 0   XYZ
    dof rx ry rz
    limits (-20.0 45.0)
           (-30.0 30.0)
           (-30.0 30.0)
  end
  begin
     id 16
     name head
     direction -0.0201693 0.999547 -0.0223192  
     length 1.83412  
     axis 0 0 0   XYZ
    dof rx ry rz
    limits (-20.0 45.0)
           (-30.0 30.0)
           (-30.0 30.0)
  end
  begin
     id 17 
     name lclavicle
     direction 0.89585 0.444077 -0.0157448  
     length 3.39587  
     axis 0 0 0   XYZ
    dof ry rz
    limits (-20.0 10.0)
           (0.0 20.0)
  end
  begin
     id 18 
     name lhumerus
     direction 1 -4.48956e-011 1.99132e-028   
     length 5.79199   
     axis 180 -30 -90   XYZ
    dof rx ry rz
    limits (-60.0 90.0)
           (-90.0 90.0)
           (-90.0 90.0)
  end
  begin
     id 19
     name lradius
     direction 1 -4.48974e-011 8.72912e-028   
     length 3.49908   
     axis 180 -30 -90   XYZ
    dof rx
    limits (-10.0 170.0)
  end
  begin
     id 20
     name lwrist
     direction 1 -4.48994e-011 4.76442e-027   
     length 1.74954   
     axis -3.27502e-015 90 90   XYZ
    dof ry
    limits (-180.0 0.0)
 end
  begin
     id 21 
     name lhand
     direction 1 -4.48945e-011 9.531e-027   
     length 0.593861   
     axis -6.08098e-015 90 90   XYZ
    dof rx rz
    limits (-90.0 90.0)
           (-45.0 45.0)
  end
  begin
     id 22 
     name lfingers
     direction 1 -4.48945e-011 1.9062e-026   
     length 0.478786   
     axis -1.21619e-014 90 90   XYZ
    dof rx
    limits (0.0 90.0)
  end
  begin
     id 23
     name lthumb
     direction 0.707107 -6.34904e-011 0.707107   
     length 0.687444   
     axis -90 45 -9.86923e-015   XYZ
    dof rx rz
    limits (-45.0 45.0)
           (-45.0 45.0)
  end
  begin
     id 24 
     name rclavicle
     direction -0.940466 0.338394 0.0318182   
     length 3.51226  
     axis 0 0 0   XYZ 
    dof ry rz
    limits (-10.0 20.0)
           (-20.0 0.0)
  end
  begin
     id 25 
     name rhumerus
     direction -1 -4.48976e-011 2.0905e-027  
     length 5.73799   
     axis 180 30 90   XYZ
    dof rx ry rz
    limits (-90.0 60.0)
           (-90.0 90.0)
           (-90.0 90.0)
  end
  begin
     id 26 
     name rradius
     direction -1 -4.48968e-011 -9.39692e-029   
     length 3.57916   
     axis 180 30 90   XYZ
    dof rx
    limits (-10.0 170.0)
  end
  begin
     id 27 
     name rwrist
     direction -1 -4.48959e-011 4.7652e-027   
     length 1.78958   
     axis -3.27502e-015 -90 -90   XYZ
    dof ry
    limits (-180.0 0.0)
  end
  begin
     id 28
     name rhand
     direction -1 -4.49042e-011 9.5267e-027   
     length 0.615577   
     axis -6.08098e-015 -90 -90   XYZ
    dof rx rz
    limits (-90.0 90.0)
           (-45.0 45.0)
  end
  begin
     id 29
     name rfingers
     direction -1 -4.48935e-011 1.90629e-026   
     length 0.496294   
     axis -1.21619e-014 -90 -90   XYZ
    dof rx
    limits (0.0 90.0)
  end
  begin
     id 30
     name rthumb
     direction -0.707107 -6.34977e-011 0.707107   
     length 0.712582   
     axis -90 -45 9.86923e-015   XYZ
    dof rx rz
    limits (-45.0 45.0)
           (-45.0 45.0)
  end
:hierarchy
  begin
    root lhipjoint rhipjoint lowerback
    lhipjoint lfemur
    lfemur ltibia
    ltibia lfoot
    lfoot ltoes
    rhipjoint rfemur
    rfemur rtibia
    rtibia rfoot
    rfoot rtoes
    lowerback upperback
    upperback thorax
    thorax lowerneck lclavicle rclavicle
    lowerneck upperneck
    upperneck head
    lclavicle lhumerus
    lhumerus lradius
    lradius lwrist
    lwrist lhand lthumb
    lhand lfingers
    rclavicle rhumerus
    rhumerus rradius
    rradius rwrist
    rwrist rhand rthumb
    rhand rfingers
  end

#!OML:ASF H:\Terrain\Patient Classification 1\PaulMetrics\March17Take5\PaulMetrics.ASF
:FULLY-SPECIFIED
:DEGREES
1923
root 14.7113 17.5193 -15.3718 0.742065 -59.177 7.57536
lowerback 0.168185 0.881852 -6.23593
upperback -2.73708 1.00756 -1.17486
thorax -3.01258 0.628966 2.2508
lowerneck -7.66062 3.79747 4.69653
upperneck 7.97378 5.10263 -5.83553
head 3.90218 2.36898 -2.25045
rclavicle -4.09559e-014 -8.15017e-015
rhumerus -44.1319 24.3832 -99.8656
rradius 51.3174
rwrist -12.5772
rhand -14.7 -29.534
rfingers 7.12502
rthumb 11.4541 -59.2011
lclavicle -4.09559e-014 -8.15017e-015
lhumerus -33.2768 -1.65492 81.2053
lradius 34.7047
lwrist 16.3036
lhand -9.00857 -20.4883
lfingers 7.12502
lthumb 16.9382 8.79307
rfemur -8.24215 10.4919 13.8676
rtibia 19.0214
rfoot -16.9184 -26.6699
rtoes -11.737
lfemur -14.4276 -5.35111 -14.9569
ltibia 20.8629
lfoot -15.1667 13.3152
ltoes -5.22272
1924
root 14.708 17.5151 -15.377 0.156078 -59.1251 8.33239
lowerback 0.074219 0.925619 -6.6691
upperback -2.72983 1.06028 -1.31135
thorax -2.96514 0.661321 2.35112
lowerneck -8.15948 3.72405 5.23292
upperneck 8.39106 4.98247 -6.27212
head 4.12974 2.29178 -2.46889
rclavicle -4.05024e-014 -1.64991e-014
rhumerus -44.2668 24.6487 -100.141
rradius 52.06
rwrist -12.8899
rhand -15.6604 -32.2297
rfingers 7.12502
rthumb 10.5278 -61.946
lclavicle -4.05024e-014 -1.64991e-014
lhumerus -33.1654 -2.0927 81.3442
lradius 34.8467
lwrist 16.551
lhand -9.01588 -20.3151
lfingers 7.12502
lthumb 16.9311 8.96691
rfemur -8.29261 10.5181 13.4293
rtibia 18.9215
rfoot -16.9438 -26.5795
rtoes -10.8116
lfemur -14.5665 -5.33578 -15.3768
ltibia 20.9553
lfoot -15.1448 13.2409
ltoes -4.79248
1925
root 14.7101 17.5254 -15.3833 -0.115169 -59.1122 8.65978
lowerback 0.151924 0.956205 -6.92357
upperback -2.77209 1.08613 -1.33068
thorax -3.06195 0.683457 2.47006
lowerneck -7.62576 3.64535 4.79179
upperneck 7.86855 4.88928 -5.88846
head 3.85659 2.26569 -2.29658
rclavicle -9.21181e-014 7.95139e-016
rhumerus -44.5713 25.2636 -100.529
rradius 52.8076
rwrist -13.5844
rhand -16.6266 -35.504
rfingers 7.12502
rthumb 9.59558 -65.2655
lclavicle -9.21181e-014 7.95139e-016
lhumerus -33.174 -2.41907 81.5099
lradius 35.0417
lwrist 16.7729
lhand -9.97089 -20.3465
lfingers 7.12502
lthumb 16.0117 9.01181
rfemur -8.2769 10.6335 13.2328
rtibia 18.9768
rfoot -17.7842 -26.1461
rtoes -8.06144
lfemur -14.5549 -5.41849 -15.5264
ltibia 20.8765
lfoot -15.0976 13.2593
ltoes -5.87183
1926
root 14.712 17.5272 -15.3831 0.146967 -59.054 8.41919
lowerback 0.115118 0.945411 -6.76412
upperback -2.80417 1.07588 -1.33935
thorax -3.06913 0.675119 2.37288
lowerneck -7.33922 3.58192 4.67513
upperneck 7.2009 4.76407 -5.45134
head 3.98459 2.24688 -2.39985
rclavicle 8.76206e-014 1.25234e-014
rhumerus -44.6826 25.8246 -100.932
rradius 53.2926
rwrist -13.8277
rhand -16.2411 -35.668
rfingers 7.12502
rthumb 9.96752 -65.412
lclavicle 8.76206e-014 1.25234e-014
lhumerus -33.1542 -2.87721 81.6337
lradius 35.2692
lwrist 17.0051
lhand -11.7069 -21.3071
lfingers 7.12502
lthumb 14.3394 8.17774
rfemur -8.32513 10.7274 13.3489
rtibia 19.1138
rfoot -18.4065 -25.9266
rtoes -5.50676
lfemur -14.5226 -5.35141 -15.387
ltibia 20.6599
lfoot -14.9237 13.0979
ltoes -6.1342
1927
root 14.7132 17.5301 -15.3789 0.173907 -59.0235 8.40865
lowerback 0.0567847 0.904069 -6.69429
upperback -2.79049 1.02813 -1.33098
thorax -3.01583 0.647982 2.34535
lowerneck -7.36257 3.58474 4.42671
upperneck 7.17365 4.7683 -5.17023
head 3.95885 2.25399 -2.25566
rclavicle 8.79001e-015 3.85642e-014
rhumerus -44.6594 26.4285 -101.227
rradius 53.8011
rwrist -13.7023
rhand -15.8958 -35.5523
rfingers 7.12502
rthumb 10.3007 -65.2801
lclavicle 8.79001e-015 3.85642e-014
lhumerus -33.0886 -3.40432 81.8605
lradius 35.5292
lwrist 17.4643
lhand -12.5619 -21.7133
lfingers 7.12502
lthumb 13.5154 7.82812
rfemur -8.4065 10.7675 13.3005
rtibia 19.1873
rfoot -18.7047 -25.8756
rtoes -4.63312
lfemur -14.4464 -5.29666 -15.4142
ltibia 20.4798
lfoot -14.7182 13.1146
ltoes -5.71746
1928
root 14.7136 17.5443 -15.3772 0.221439 -59.0045 8.36506
lowerback 0.0710708 0.825239 -6.7134
upperback -2.81416 0.923052 -1.24544
thorax -3.04092 0.598835 2.44716
lowerneck -7.37206 3.64781 4.14221
upperneck 7.2319 4.86527 -4.94113
head 3.96662 2.30313 -2.11812
rclavicle -8.21726e-014 -1.0138e-014
rhumerus -44.8809 27.2336 -101.623
rradius 54.6065
rwrist -13.9705
rhand -16.0675 -35.6027
rfingers 7.12502
rthumb 10.135 -65.3386
lclavicle -8.21726e-014 -1.0138e-014
lhumerus -33.1545 -3.81512 82.112
lradius 35.9239
lwrist 18.0779
lhand -12.3308 -21.153
lfingers 7.12502
lthumb 13.7382 8.37345
rfemur -8.4977 10.632 13.2849
rtibia 19.2579
rfoot -18.3862 -25.9591
rtoes -6.7796
lfemur -14.4187 -5.40191 -15.4062
ltibia 20.3426
lfoot -14.5695 13.3579
ltoes -5.95887
